<svg id="svg" version="1.1" xmlns="http://www.w3.org/2000/svg" xmlns:xlink="http://www.w3.org/1999/xlink" width="400" height="54.523809523809526" viewBox="0, 0, 400,54.523809523809526"><g id="svgg"><path id="path0" d="M167.090 12.611 C 166.394 12.811,165.625 13.434,165.125 14.205 C 164.813 14.686,164.695 17.000,164.982 17.000 C 165.064 17.000,165.181 17.202,165.243 17.448 C 165.461 18.319,166.923 19.064,168.402 19.060 C 169.514 19.056,171.333 18.345,171.333 17.913 C 171.333 17.787,171.451 17.618,171.594 17.537 C 172.330 17.126,172.026 14.310,171.157 13.476 C 170.358 12.710,168.284 12.269,167.090 12.611 M64.375 13.108 C 64.169 13.153,64.000 13.252,64.000 13.327 C 64.000 13.402,63.831 13.508,63.625 13.561 C 63.419 13.614,63.081 13.908,62.875 14.214 L 62.500 14.771 62.500 29.721 L 62.500 44.671 63.125 45.335 C 63.559 45.797,63.890 46.000,64.208 46.000 C 64.460 46.000,64.667 46.075,64.667 46.167 C 64.667 46.371,65.612 46.390,65.737 46.188 C 65.786 46.108,66.051 45.998,66.325 45.943 C 66.924 45.824,67.453 45.329,67.597 44.754 C 67.655 44.523,67.770 44.333,67.851 44.333 C 67.937 44.333,68.002 40.368,68.005 35.042 L 68.010 25.750 68.426 26.417 C 68.655 26.783,69.081 27.571,69.374 28.167 C 69.667 28.762,69.959 29.288,70.023 29.335 C 70.088 29.382,70.190 29.620,70.252 29.865 C 70.313 30.109,70.462 30.347,70.583 30.393 C 70.703 30.440,70.852 30.708,70.914 30.989 C 70.976 31.270,71.077 31.501,71.138 31.501 C 71.200 31.502,71.331 31.671,71.430 31.876 C 72.092 33.246,73.271 35.426,73.375 35.472 C 73.444 35.503,73.500 35.609,73.500 35.709 C 73.500 35.809,73.600 36.009,73.723 36.154 C 73.845 36.298,74.047 36.679,74.171 37.000 C 74.296 37.321,74.440 37.621,74.491 37.667 C 74.542 37.712,74.758 38.106,74.970 38.542 C 75.183 38.977,75.426 39.333,75.512 39.333 C 75.597 39.333,75.667 39.453,75.667 39.600 C 75.667 39.946,76.721 41.000,77.067 41.000 C 77.213 41.000,77.333 41.075,77.333 41.167 C 77.333 41.438,78.902 41.356,79.510 41.053 C 80.074 40.772,80.833 40.065,80.833 39.821 C 80.833 39.749,80.928 39.591,81.044 39.470 C 81.313 39.189,82.670 36.479,82.668 36.226 C 82.667 36.121,82.779 35.992,82.917 35.940 C 83.054 35.887,83.167 35.729,83.167 35.589 C 83.167 35.448,83.242 35.333,83.333 35.333 C 83.425 35.333,83.500 35.241,83.500 35.127 C 83.500 34.895,84.352 33.130,84.527 32.998 C 84.589 32.952,84.692 32.708,84.755 32.457 C 84.818 32.205,84.924 32.000,84.991 32.000 C 85.139 32.000,86.000 30.327,86.000 30.039 C 86.000 29.926,86.069 29.833,86.153 29.833 C 86.238 29.833,86.356 29.608,86.417 29.333 C 86.477 29.058,86.577 28.833,86.638 28.833 C 86.700 28.833,86.975 28.364,87.250 27.791 C 87.525 27.219,87.844 26.651,87.958 26.530 C 88.073 26.409,88.167 26.202,88.167 26.071 C 88.167 25.940,88.238 25.833,88.326 25.833 C 88.424 25.833,88.503 29.413,88.534 35.220 C 88.576 43.292,88.618 44.644,88.833 44.867 C 88.971 45.009,89.195 45.287,89.332 45.484 C 89.478 45.696,89.836 45.883,90.207 45.942 C 90.551 45.998,90.833 46.108,90.833 46.188 C 90.833 46.377,91.786 46.378,91.903 46.188 C 91.953 46.108,92.216 45.999,92.488 45.944 C 93.041 45.834,93.667 45.364,93.667 45.060 C 93.667 44.951,93.760 44.830,93.875 44.792 C 94.090 44.720,94.295 16.225,94.089 15.078 C 94.006 14.615,93.503 13.970,92.729 13.333 C 92.517 13.159,92.037 13.083,91.149 13.083 L 89.873 13.083 89.228 13.790 C 88.231 14.882,88.187 14.943,88.072 15.402 C 88.013 15.639,87.911 15.833,87.846 15.833 C 87.782 15.833,87.626 16.096,87.500 16.417 C 87.374 16.737,87.216 17.000,87.149 17.000 C 87.082 17.000,86.977 17.225,86.917 17.500 C 86.856 17.775,86.744 18.000,86.667 18.000 C 86.590 18.000,86.478 18.220,86.419 18.488 C 86.360 18.757,86.209 19.062,86.083 19.167 C 85.958 19.271,85.806 19.576,85.747 19.845 C 85.688 20.114,85.577 20.333,85.500 20.333 C 85.423 20.333,85.310 20.558,85.250 20.833 C 85.190 21.108,85.071 21.333,84.987 21.333 C 84.902 21.333,84.833 21.437,84.833 21.563 C 84.833 21.689,84.721 21.886,84.584 21.999 C 84.447 22.113,84.248 22.497,84.141 22.853 C 84.034 23.209,83.890 23.500,83.820 23.500 C 83.750 23.500,83.644 23.725,83.583 24.000 C 83.523 24.275,83.406 24.500,83.323 24.500 C 83.241 24.500,83.126 24.688,83.068 24.917 C 83.011 25.146,82.909 25.333,82.842 25.333 C 82.774 25.333,82.626 25.645,82.512 26.027 C 82.398 26.408,82.217 26.818,82.110 26.937 C 81.643 27.462,81.500 27.661,81.500 27.783 C 81.500 27.941,79.624 31.715,79.487 31.833 C 79.433 31.879,79.284 32.160,79.154 32.458 C 79.025 32.756,78.868 33.000,78.806 33.000 C 78.744 33.000,78.644 33.225,78.583 33.500 C 78.443 34.139,78.224 34.139,78.083 33.500 C 78.023 33.225,77.913 33.000,77.838 33.000 C 77.764 33.000,77.652 32.798,77.590 32.552 C 77.528 32.305,77.333 31.900,77.156 31.651 C 76.978 31.402,76.833 31.116,76.833 31.016 C 76.833 30.916,76.766 30.833,76.685 30.833 C 76.603 30.833,76.485 30.628,76.422 30.377 C 76.358 30.126,76.257 29.882,76.195 29.835 C 76.134 29.788,75.751 29.094,75.344 28.292 C 74.937 27.490,74.544 26.833,74.469 26.833 C 74.394 26.833,74.334 26.740,74.335 26.625 C 74.336 26.425,73.017 23.671,72.837 23.500 C 72.789 23.454,72.528 22.967,72.256 22.417 C 71.985 21.867,71.714 21.379,71.654 21.333 C 71.594 21.287,71.487 21.063,71.417 20.833 C 71.346 20.604,71.242 20.379,71.186 20.333 C 71.129 20.287,70.758 19.594,70.360 18.792 C 69.963 17.990,69.569 17.333,69.485 17.333 C 69.402 17.333,69.333 17.240,69.332 17.125 C 69.331 17.010,69.146 16.542,68.920 16.083 C 68.695 15.625,68.508 15.191,68.505 15.118 C 68.500 14.981,68.410 14.862,67.789 14.167 C 66.978 13.259,65.618 12.838,64.375 13.108 M151.625 16.440 C 151.465 16.487,151.333 16.594,151.333 16.679 C 151.333 16.764,151.218 16.833,151.078 16.833 C 150.938 16.833,150.774 16.965,150.715 17.125 C 150.656 17.285,150.527 17.470,150.429 17.535 C 150.317 17.609,150.230 18.690,150.197 20.410 L 150.144 23.167 148.322 23.167 C 147.218 23.167,146.500 23.232,146.500 23.333 C 146.500 23.425,146.402 23.500,146.281 23.500 C 145.444 23.500,144.854 26.211,145.542 26.899 C 145.686 27.043,145.831 27.242,145.864 27.341 C 145.897 27.440,146.241 27.564,146.629 27.616 C 147.016 27.668,147.333 27.776,147.333 27.855 C 147.333 27.935,147.966 28.000,148.739 28.000 L 150.145 28.000 150.198 34.445 C 150.238 39.414,150.298 40.905,150.458 40.958 C 150.573 40.997,150.667 41.160,150.667 41.322 C 150.667 42.050,152.291 44.333,152.809 44.333 C 152.914 44.333,153.000 44.396,153.000 44.473 C 153.000 44.698,154.715 45.500,155.197 45.500 C 155.440 45.500,155.670 45.594,155.708 45.708 C 155.826 46.063,161.522 46.000,161.883 45.640 C 162.036 45.488,162.254 45.332,162.367 45.294 C 163.196 45.018,162.534 41.833,161.647 41.833 C 161.486 41.833,161.314 41.770,161.265 41.692 C 161.217 41.614,160.545 41.501,159.772 41.442 C 158.451 41.340,157.000 40.837,157.000 40.481 C 157.000 40.413,156.869 40.226,156.708 40.066 C 156.443 39.801,156.412 39.233,156.369 33.887 L 156.321 28.000 158.411 28.000 C 159.692 28.000,160.500 27.936,160.500 27.833 C 160.500 27.742,160.711 27.667,160.970 27.667 C 161.257 27.667,161.659 27.471,162.002 27.165 C 163.018 26.258,162.673 23.519,161.542 23.503 C 161.427 23.501,161.333 23.425,161.333 23.333 C 161.333 23.230,160.389 23.167,158.833 23.167 L 156.333 23.167 156.333 20.917 C 156.333 19.528,156.270 18.667,156.167 18.667 C 156.075 18.667,156.000 18.452,156.000 18.189 C 156.000 17.665,155.439 16.833,155.085 16.833 C 154.962 16.833,154.830 16.740,154.792 16.626 C 154.721 16.413,152.226 16.267,151.625 16.440 M11.737 20.857 C 10.505 21.455,10.546 24.463,11.790 24.775 C 11.997 24.827,12.167 24.936,12.167 25.018 C 12.167 25.100,12.542 25.167,13.000 25.167 C 13.458 25.167,13.833 25.092,13.833 25.000 C 13.833 24.908,13.935 24.833,14.059 24.833 C 14.833 24.833,15.487 23.457,15.268 22.289 C 15.016 20.946,13.130 20.182,11.737 20.857 M20.606 21.012 C 20.364 21.202,20.167 21.465,20.167 21.595 C 20.167 21.726,20.092 21.833,20.000 21.833 C 19.725 21.833,19.807 23.593,20.105 24.111 C 20.556 24.892,23.000 25.642,23.000 25.000 C 23.000 24.908,23.094 24.832,23.208 24.830 C 24.330 24.815,24.696 22.082,23.698 21.171 C 22.984 20.519,21.340 20.434,20.606 21.012 M30.003 20.790 C 28.715 21.295,28.589 24.248,29.835 24.718 C 30.109 24.822,30.333 24.965,30.333 25.037 C 30.333 25.245,31.592 25.186,32.023 24.957 C 32.610 24.645,33.167 24.121,33.167 23.880 C 33.167 23.762,33.242 23.667,33.333 23.667 C 33.425 23.667,33.500 23.292,33.500 22.833 C 33.500 22.375,33.433 22.000,33.351 22.000 C 33.270 22.000,33.160 21.830,33.108 21.623 C 32.919 20.869,31.067 20.372,30.003 20.790 M38.917 20.869 C 38.118 21.331,37.810 22.351,38.063 23.700 C 38.235 24.617,41.000 25.841,41.000 25.000 C 41.000 24.908,41.102 24.833,41.226 24.833 C 42.461 24.833,42.952 22.347,41.925 21.292 C 41.269 20.617,39.728 20.401,38.917 20.869 M108.417 22.658 C 106.290 23.091,105.925 23.184,105.842 23.314 C 105.791 23.393,105.506 23.511,105.208 23.576 C 104.910 23.640,104.667 23.744,104.667 23.806 C 104.667 23.868,104.423 24.025,104.125 24.156 C 103.203 24.559,100.667 27.262,100.667 27.841 C 100.667 27.928,100.598 28.000,100.513 28.000 C 100.429 28.000,100.310 28.225,100.250 28.500 C 100.190 28.775,100.079 29.000,100.005 29.000 C 99.931 29.000,99.818 29.281,99.754 29.625 C 99.689 29.969,99.570 30.331,99.489 30.429 C 98.913 31.127,98.927 36.706,99.509 38.530 C 99.688 39.087,99.833 39.646,99.833 39.772 C 99.833 39.897,99.902 40.000,99.987 40.000 C 100.071 40.000,100.190 40.225,100.250 40.500 C 100.310 40.775,100.424 41.000,100.502 41.000 C 100.580 41.000,100.689 41.142,100.744 41.315 C 100.799 41.488,101.010 41.816,101.214 42.045 C 101.417 42.273,101.803 42.732,102.071 43.064 C 102.339 43.395,102.641 43.667,102.742 43.667 C 102.843 43.667,103.054 43.817,103.211 44.000 C 103.368 44.183,103.610 44.333,103.748 44.333 C 103.887 44.333,104.000 44.401,104.000 44.483 C 104.000 44.699,105.200 45.293,105.902 45.425 C 106.231 45.487,106.500 45.598,106.500 45.672 C 106.500 45.746,106.989 45.859,107.586 45.923 C 108.183 45.987,108.712 46.105,108.762 46.186 C 108.885 46.385,112.263 46.374,112.627 46.175 C 112.786 46.087,113.423 45.969,114.042 45.911 C 114.660 45.854,115.167 45.747,115.167 45.674 C 115.167 45.601,115.410 45.494,115.708 45.435 C 116.356 45.307,118.006 44.652,118.273 44.417 C 118.432 44.277,119.012 43.841,119.492 43.500 C 119.997 43.141,120.437 40.833,120.000 40.833 C 119.908 40.833,119.833 40.687,119.833 40.508 C 119.833 39.986,118.830 39.333,118.026 39.333 C 117.645 39.333,117.333 39.408,117.333 39.500 C 117.333 39.592,117.200 39.667,117.037 39.667 C 116.874 39.667,116.593 39.768,116.412 39.893 C 116.231 40.017,115.795 40.213,115.442 40.328 C 115.090 40.443,114.602 40.640,114.359 40.767 C 114.116 40.894,113.800 40.998,113.658 40.999 C 113.516 41.000,113.311 41.089,113.201 41.199 C 112.944 41.456,109.287 41.472,108.972 41.218 C 108.850 41.119,108.501 40.985,108.197 40.920 C 107.893 40.855,107.604 40.696,107.554 40.568 C 107.505 40.439,107.379 40.332,107.274 40.330 C 107.033 40.327,106.333 39.598,106.333 39.352 C 106.333 39.250,106.277 39.167,106.207 39.167 C 106.030 39.167,105.380 37.389,105.248 36.542 L 105.137 35.833 112.152 35.833 C 116.717 35.833,119.167 35.775,119.167 35.667 C 119.167 35.575,119.268 35.500,119.391 35.500 C 120.148 35.500,120.689 31.275,120.037 30.452 C 119.949 30.341,119.823 29.950,119.757 29.583 C 119.691 29.217,119.578 28.842,119.507 28.750 C 119.435 28.658,119.286 28.302,119.175 27.958 C 119.065 27.615,118.905 27.333,118.820 27.333 C 118.736 27.333,118.667 27.236,118.667 27.117 C 118.667 26.635,116.640 24.497,115.852 24.148 C 115.567 24.022,115.333 23.868,115.333 23.806 C 115.333 23.744,115.108 23.644,114.833 23.583 C 114.558 23.523,114.333 23.409,114.333 23.330 C 114.333 23.252,113.977 23.135,113.542 23.070 C 113.106 23.006,112.712 22.895,112.665 22.824 C 112.540 22.632,109.188 22.500,108.417 22.658 M132.588 22.614 C 132.132 22.655,131.682 22.748,131.588 22.822 C 131.494 22.896,131.135 23.007,130.792 23.069 C 130.448 23.131,130.167 23.253,130.167 23.341 C 130.167 23.428,130.059 23.500,129.927 23.500 C 129.595 23.500,127.839 24.426,127.424 24.820 C 127.237 24.998,126.896 25.321,126.667 25.538 C 126.027 26.144,125.410 26.893,125.288 27.212 C 125.227 27.371,125.100 27.500,125.005 27.500 C 124.911 27.500,124.833 27.597,124.833 27.715 C 124.833 27.833,124.688 28.215,124.510 28.564 C 124.332 28.914,124.135 29.436,124.074 29.725 C 124.012 30.014,123.896 30.332,123.816 30.431 C 123.189 31.214,123.199 38.275,123.828 38.664 C 123.906 38.712,124.022 39.032,124.087 39.375 C 124.151 39.719,124.270 40.000,124.352 40.000 C 124.433 40.000,124.488 40.056,124.473 40.125 C 124.399 40.471,124.933 41.391,125.542 41.965 C 125.702 42.117,125.833 42.322,125.833 42.421 C 125.833 42.659,126.878 43.667,127.125 43.667 C 127.230 43.667,127.377 43.760,127.450 43.875 C 127.627 44.151,128.607 44.833,128.827 44.833 C 128.922 44.833,129.000 44.903,129.000 44.988 C 129.000 45.073,129.412 45.235,129.917 45.348 C 130.421 45.461,130.833 45.610,130.833 45.680 C 130.833 45.750,131.322 45.859,131.919 45.923 C 132.516 45.987,133.046 46.105,133.095 46.186 C 133.212 46.376,137.000 46.380,137.000 46.191 C 137.000 46.112,137.501 46.001,138.113 45.944 C 138.725 45.887,139.269 45.778,139.321 45.702 C 139.374 45.625,139.848 45.468,140.375 45.353 C 140.902 45.237,141.333 45.079,141.333 45.001 C 141.333 44.923,141.553 44.812,141.822 44.753 C 142.090 44.694,142.400 44.538,142.509 44.406 C 142.618 44.274,142.778 44.167,142.865 44.167 C 142.951 44.167,143.298 43.906,143.636 43.587 C 144.653 42.627,144.468 39.667,143.391 39.667 C 143.268 39.667,143.167 39.592,143.167 39.500 C 143.167 39.287,141.921 39.282,141.539 39.494 C 141.380 39.583,140.875 39.815,140.417 40.010 C 139.958 40.205,139.378 40.464,139.127 40.586 C 138.876 40.707,138.426 40.858,138.127 40.922 C 137.828 40.986,137.479 41.123,137.352 41.225 C 137.063 41.459,133.345 41.452,133.192 41.217 C 133.132 41.126,132.870 40.999,132.608 40.935 C 131.658 40.702,130.634 39.779,130.326 38.875 C 130.224 38.577,130.079 38.333,130.003 38.333 C 129.927 38.333,129.813 37.958,129.750 37.500 C 129.687 37.042,129.567 36.625,129.484 36.574 C 129.401 36.522,129.333 36.335,129.333 36.157 C 129.333 35.842,129.514 35.833,136.240 35.833 C 143.900 35.833,144.333 35.774,144.333 34.734 C 144.333 34.513,144.408 34.333,144.500 34.333 C 144.594 34.333,144.667 33.864,144.667 33.260 C 144.667 32.669,144.592 32.140,144.500 32.083 C 144.408 32.027,144.331 31.666,144.329 31.282 C 144.322 29.968,143.431 27.444,142.712 26.696 C 142.595 26.575,142.500 26.420,142.500 26.351 C 142.500 26.099,140.647 24.366,140.164 24.166 C 139.890 24.052,139.667 23.900,139.667 23.826 C 139.667 23.753,139.442 23.644,139.167 23.583 C 138.892 23.523,138.667 23.409,138.667 23.330 C 138.667 23.252,138.310 23.136,137.875 23.073 C 137.440 23.010,137.006 22.897,136.912 22.822 C 136.701 22.656,133.721 22.512,132.588 22.614 M188.500 22.612 C 188.088 22.654,187.679 22.758,187.592 22.844 C 187.505 22.930,187.332 23.000,187.208 23.000 C 186.959 23.000,185.466 23.648,185.333 23.813 C 185.287 23.870,185.063 24.015,184.833 24.135 C 184.276 24.426,183.825 24.816,183.374 25.397 L 183.000 25.878 183.000 25.189 C 183.000 24.810,182.925 24.500,182.833 24.500 C 182.742 24.500,182.667 24.391,182.667 24.259 C 182.667 23.947,181.958 23.183,181.398 22.893 C 180.894 22.632,178.833 22.584,178.833 22.833 C 178.833 22.925,178.702 23.001,178.542 23.003 C 178.232 23.006,177.756 23.461,177.286 24.202 C 176.860 24.876,176.846 43.881,177.271 44.717 C 177.676 45.513,178.116 45.858,178.849 45.957 C 179.212 46.005,179.548 46.110,179.597 46.189 C 179.713 46.376,180.454 46.376,180.569 46.189 C 180.618 46.110,180.916 46.003,181.230 45.952 C 181.835 45.854,182.667 45.245,182.667 44.900 C 182.667 44.787,182.760 44.663,182.875 44.625 C 183.036 44.572,183.095 43.074,183.134 38.070 C 183.163 34.288,183.250 31.517,183.342 31.425 C 183.429 31.338,183.500 31.104,183.500 30.906 C 183.500 30.707,183.650 30.354,183.833 30.121 C 184.017 29.888,184.167 29.621,184.167 29.527 C 184.167 29.284,185.502 28.232,186.000 28.081 C 186.229 28.012,186.467 27.876,186.529 27.779 C 186.698 27.516,190.037 27.528,190.125 27.792 C 190.163 27.907,190.269 28.000,190.360 28.000 C 190.583 28.000,191.500 28.928,191.500 29.154 C 191.500 29.253,191.570 29.333,191.656 29.333 C 191.743 29.333,191.859 29.690,191.915 30.125 C 191.971 30.560,192.088 31.047,192.175 31.206 C 192.267 31.375,192.333 34.250,192.333 38.101 L 192.333 44.706 192.980 45.353 C 193.450 45.823,193.767 46.000,194.137 46.000 C 194.418 46.000,194.693 46.075,194.750 46.167 C 194.807 46.258,195.032 46.333,195.250 46.333 C 195.468 46.333,195.693 46.258,195.750 46.167 C 195.807 46.075,196.065 46.000,196.325 46.000 C 196.982 46.000,197.968 45.084,198.210 44.249 C 198.454 43.404,198.582 31.402,198.351 30.917 C 198.264 30.733,198.149 29.987,198.096 29.258 C 198.042 28.528,197.924 27.857,197.833 27.766 C 197.741 27.675,197.667 27.485,197.667 27.344 C 197.667 27.000,196.815 25.333,196.639 25.333 C 196.563 25.333,196.500 25.236,196.500 25.117 C 196.500 24.998,196.273 24.717,195.995 24.492 C 195.717 24.267,195.395 23.999,195.279 23.897 C 195.163 23.794,194.884 23.653,194.659 23.583 C 194.434 23.513,194.213 23.403,194.167 23.340 C 193.810 22.845,190.453 22.414,188.500 22.612 M211.042 22.613 C 210.560 22.652,210.167 22.747,210.167 22.823 C 210.167 22.900,209.829 23.013,209.417 23.075 C 209.004 23.136,208.667 23.257,208.667 23.344 C 208.667 23.430,208.528 23.500,208.359 23.500 C 208.190 23.500,207.878 23.650,207.667 23.833 C 207.455 24.017,207.188 24.167,207.073 24.167 C 206.736 24.167,204.407 26.585,204.158 27.193 C 204.033 27.500,203.834 27.849,203.715 27.970 C 203.597 28.091,203.500 28.373,203.500 28.595 C 203.500 28.818,203.433 29.000,203.352 29.000 C 203.270 29.000,203.151 29.281,203.087 29.625 C 203.023 29.969,202.893 30.343,202.800 30.456 C 202.553 30.755,202.427 35.415,202.638 36.417 C 203.017 38.209,203.200 38.833,203.347 38.833 C 203.431 38.833,203.500 39.015,203.500 39.238 C 203.500 39.461,203.612 39.755,203.750 39.893 C 203.887 40.030,204.000 40.209,204.000 40.289 C 204.000 40.369,204.169 40.668,204.375 40.952 C 204.581 41.236,204.862 41.633,205.000 41.833 C 205.395 42.407,205.970 43.000,206.133 43.000 C 206.215 43.000,206.417 43.150,206.583 43.333 C 206.749 43.517,206.988 43.667,207.114 43.667 C 207.241 43.667,207.385 43.775,207.436 43.906 C 207.486 44.038,207.747 44.194,208.014 44.253 C 208.281 44.312,208.500 44.416,208.500 44.485 C 208.500 44.652,209.799 44.984,211.293 45.199 C 212.588 45.385,215.333 45.240,215.333 44.985 C 215.333 44.902,215.519 44.833,215.745 44.833 C 216.172 44.833,217.419 44.257,217.804 43.882 C 217.925 43.763,218.084 43.667,218.158 43.667 C 218.332 43.667,219.593 42.445,219.729 42.145 C 220.041 41.461,219.665 45.819,219.342 46.637 C 218.993 47.523,218.059 48.667,217.686 48.667 C 217.578 48.667,217.448 48.776,217.397 48.909 C 217.345 49.042,216.974 49.200,216.569 49.261 C 216.164 49.322,215.833 49.438,215.833 49.519 C 215.833 49.600,214.971 49.667,213.917 49.667 C 212.862 49.667,212.000 49.601,212.000 49.521 C 212.000 49.442,211.628 49.327,211.174 49.267 C 210.719 49.206,210.307 49.093,210.259 49.014 C 210.210 48.935,209.926 48.825,209.627 48.768 C 209.328 48.711,208.891 48.564,208.656 48.442 C 208.420 48.319,208.009 48.163,207.741 48.096 C 207.473 48.029,207.204 47.894,207.144 47.797 C 206.607 46.927,204.249 47.825,204.071 48.968 C 203.728 51.166,205.028 52.910,207.408 53.446 C 208.360 53.661,209.134 53.883,209.372 54.011 C 210.241 54.477,218.360 54.484,218.658 54.019 C 218.709 53.940,219.012 53.821,219.333 53.755 C 219.978 53.621,221.385 52.988,221.472 52.792 C 221.503 52.723,221.622 52.667,221.738 52.667 C 221.854 52.667,222.084 52.517,222.250 52.333 C 222.416 52.150,222.634 51.997,222.734 51.992 C 222.835 51.988,223.047 51.819,223.207 51.617 C 223.366 51.415,223.685 51.025,223.915 50.750 C 224.145 50.475,224.333 50.156,224.333 50.042 C 224.333 49.927,224.408 49.833,224.500 49.833 C 224.592 49.833,224.669 49.740,224.672 49.625 C 224.675 49.510,224.823 49.117,225.000 48.750 C 225.177 48.383,225.325 47.967,225.328 47.825 C 225.331 47.683,225.427 47.473,225.542 47.358 C 225.860 47.040,225.937 24.462,225.621 24.142 C 225.498 24.018,225.352 23.794,225.295 23.645 C 225.238 23.495,224.961 23.270,224.679 23.146 C 224.397 23.021,224.167 22.862,224.167 22.793 C 224.167 22.538,221.894 22.662,221.317 22.948 C 220.402 23.403,219.833 24.266,219.833 25.202 L 219.833 25.769 218.920 24.884 C 218.418 24.398,217.893 24.000,217.754 24.000 C 217.614 24.000,217.500 23.931,217.500 23.847 C 217.500 23.762,217.275 23.644,217.000 23.583 C 216.725 23.523,216.500 23.408,216.500 23.328 C 216.500 23.247,216.219 23.131,215.875 23.069 C 215.531 23.007,215.172 22.895,215.077 22.820 C 214.862 22.652,212.226 22.516,211.042 22.613 M167.167 22.833 C 167.167 22.925,167.033 23.000,166.870 23.000 C 166.496 23.000,165.667 23.931,165.667 24.350 C 165.667 24.524,165.592 24.667,165.500 24.667 C 165.391 24.667,165.333 28.056,165.333 34.500 C 165.333 40.379,165.395 44.333,165.487 44.333 C 165.571 44.333,165.690 44.558,165.750 44.833 C 165.810 45.108,165.917 45.333,165.988 45.333 C 166.058 45.333,166.289 45.483,166.500 45.667 C 166.711 45.850,167.093 46.000,167.349 46.000 C 167.605 46.000,167.860 46.075,167.917 46.167 C 168.043 46.371,168.780 46.388,168.903 46.189 C 168.952 46.109,169.294 45.996,169.663 45.937 C 170.032 45.878,170.333 45.755,170.333 45.665 C 170.333 45.574,170.446 45.500,170.583 45.500 C 170.721 45.500,170.833 45.430,170.833 45.345 C 170.833 45.260,170.965 45.059,171.125 44.899 C 171.396 44.627,171.417 43.900,171.417 34.428 L 171.417 24.249 170.848 23.625 C 170.536 23.281,170.142 23.000,169.973 23.000 C 169.805 23.000,169.667 22.925,169.667 22.833 C 169.667 22.737,169.139 22.667,168.417 22.667 C 167.694 22.667,167.167 22.737,167.167 22.833 M111.983 27.300 C 112.038 27.385,112.256 27.509,112.467 27.575 C 113.004 27.742,113.896 28.676,114.164 29.350 C 114.288 29.662,114.452 29.999,114.528 30.100 C 114.604 30.201,114.715 30.745,114.774 31.309 L 114.881 32.333 110.008 32.333 L 105.135 32.333 105.255 31.458 C 105.320 30.977,105.425 30.546,105.488 30.500 C 105.551 30.454,105.708 30.154,105.837 29.833 C 106.337 28.588,107.684 27.455,109.083 27.102 C 109.601 26.971,111.872 27.126,111.983 27.300 M136.317 27.300 C 136.372 27.385,136.593 27.510,136.809 27.578 C 137.759 27.874,138.953 29.834,139.112 31.359 L 139.214 32.333 134.274 32.333 L 129.333 32.333 129.333 31.917 C 129.333 31.688,129.408 31.500,129.500 31.500 C 129.592 31.500,129.667 31.319,129.667 31.097 C 129.667 30.669,130.410 29.066,130.780 28.697 C 130.901 28.575,131.000 28.424,131.000 28.361 C 131.000 28.246,131.170 28.139,132.096 27.670 C 132.364 27.534,132.621 27.372,132.667 27.310 C 132.899 26.997,136.116 26.988,136.317 27.300 M216.304 27.787 C 216.368 27.889,216.626 28.025,216.877 28.088 C 217.128 28.151,217.333 28.272,217.333 28.356 C 217.333 28.440,217.521 28.580,217.750 28.667 C 217.979 28.754,218.167 28.912,218.167 29.018 C 218.167 29.125,218.349 29.381,218.572 29.587 C 218.795 29.794,219.065 30.290,219.172 30.690 C 219.278 31.090,219.448 31.516,219.547 31.638 C 219.788 31.931,219.806 36.141,219.567 36.300 C 219.471 36.364,219.295 36.768,219.177 37.198 C 219.059 37.627,218.859 38.019,218.731 38.067 C 218.604 38.116,218.500 38.233,218.500 38.326 C 218.500 38.587,217.953 39.167,217.708 39.167 C 217.588 39.167,217.449 39.272,217.399 39.402 C 217.350 39.531,217.109 39.687,216.865 39.748 C 216.620 39.810,216.366 39.948,216.299 40.055 C 216.137 40.318,212.204 40.327,212.036 40.064 C 211.970 39.962,211.741 39.823,211.525 39.756 C 211.040 39.605,209.905 38.489,209.755 38.016 C 209.694 37.824,209.582 37.667,209.505 37.667 C 208.862 37.667,208.397 32.968,208.917 31.724 C 209.054 31.395,209.167 30.997,209.167 30.838 C 209.167 30.680,209.317 30.378,209.500 30.167 C 209.683 29.955,209.833 29.719,209.833 29.641 C 209.833 29.319,211.499 28.000,211.906 28.000 C 212.049 28.000,212.167 27.930,212.167 27.844 C 212.167 27.486,216.085 27.432,216.304 27.787 M11.400 30.233 C 10.447 31.186,10.713 33.833,11.762 33.833 C 11.893 33.833,12.000 33.908,12.000 34.000 C 12.000 34.092,12.412 34.167,12.917 34.167 C 13.421 34.167,13.833 34.092,13.833 34.000 C 13.833 33.908,13.942 33.833,14.075 33.833 C 15.351 33.833,15.730 31.321,14.613 30.267 C 13.686 29.393,12.255 29.378,11.400 30.233 M20.609 30.047 C 20.366 30.256,20.167 30.519,20.167 30.630 C 20.167 30.742,20.092 30.833,20.000 30.833 C 19.461 30.833,19.837 32.837,20.500 33.500 C 21.162 34.162,23.000 34.529,23.000 34.000 C 23.000 33.908,23.099 33.833,23.221 33.833 C 24.705 33.833,24.582 30.185,23.083 29.765 C 22.245 29.530,21.053 29.666,20.609 30.047 M11.917 38.861 C 10.627 39.573,10.364 41.564,11.419 42.619 C 12.561 43.761,14.882 43.110,15.277 41.536 C 15.748 39.657,13.589 37.937,11.917 38.861 M20.709 39.042 C 20.414 39.248,20.171 39.510,20.170 39.625 C 20.168 39.740,20.092 39.833,20.000 39.833 C 19.759 39.833,19.795 41.555,20.046 42.039 C 20.908 43.699,23.833 43.472,24.275 41.711 C 24.831 39.495,22.528 37.770,20.709 39.042 " stroke="none" fill="#6c64fc" fill-rule="evenodd"></path><path id="path1" d="M11.429 1.272 C 10.911 1.728,10.696 2.521,10.677 4.042 L 10.667 4.833 8.750 4.833 C 7.696 4.833,6.833 4.899,6.833 4.979 C 6.833 5.058,6.458 5.173,6.000 5.234 C 5.542 5.295,5.167 5.407,5.167 5.484 C 5.167 5.561,4.829 5.718,4.417 5.833 C 4.004 5.949,3.667 6.109,3.667 6.188 C 3.667 6.268,3.586 6.333,3.487 6.333 C 3.388 6.333,2.863 6.777,2.320 7.320 C 1.777 7.863,1.333 8.388,1.333 8.487 C 1.333 8.586,1.267 8.667,1.187 8.667 C 1.106 8.667,0.942 8.910,0.821 9.208 C 0.701 9.506,0.557 9.787,0.501 9.833 C -0.252 10.453,-0.266 49.333,0.487 49.333 C 0.557 49.333,0.700 49.615,0.806 49.958 C 0.912 50.302,1.205 50.823,1.458 51.115 C 1.710 51.408,2.067 51.836,2.250 52.066 C 2.433 52.296,2.660 52.488,2.755 52.492 C 2.849 52.497,3.054 52.650,3.211 52.833 C 3.368 53.017,3.610 53.167,3.748 53.167 C 3.887 53.167,4.000 53.236,4.000 53.320 C 4.000 53.405,4.281 53.566,4.625 53.678 C 4.969 53.790,5.303 53.965,5.369 54.066 C 5.454 54.197,8.383 54.250,15.536 54.250 L 25.583 54.250 26.000 53.833 C 26.862 52.971,26.393 50.167,25.387 50.167 C 25.266 50.167,25.167 50.094,25.167 50.005 C 25.167 49.904,21.780 49.827,16.055 49.797 C 8.948 49.760,6.929 49.704,6.875 49.542 C 6.837 49.427,6.706 49.333,6.585 49.333 C 6.198 49.333,4.831 47.865,4.726 47.336 C 4.670 47.060,4.559 46.833,4.479 46.833 C 4.397 46.833,4.333 39.365,4.333 29.667 C 4.333 18.333,4.390 12.500,4.500 12.500 C 4.592 12.500,4.667 12.355,4.667 12.179 C 4.667 12.002,4.779 11.745,4.917 11.607 C 5.054 11.470,5.167 11.309,5.167 11.249 C 5.167 11.076,6.125 10.167,6.307 10.167 C 6.398 10.167,6.500 10.084,6.533 9.984 C 6.567 9.883,6.948 9.761,7.380 9.712 C 7.813 9.663,8.167 9.558,8.167 9.478 C 8.167 9.399,8.718 9.333,9.392 9.333 L 10.617 9.333 10.715 10.847 C 10.815 12.382,11.105 13.167,11.573 13.167 C 11.701 13.167,11.837 13.260,11.875 13.375 C 11.921 13.513,12.309 13.583,13.027 13.583 C 14.727 13.583,15.212 13.010,15.305 10.895 L 15.373 9.333 19.753 9.333 L 24.134 9.333 24.192 10.840 C 24.224 11.668,24.330 12.399,24.429 12.465 C 24.527 12.530,24.656 12.715,24.715 12.875 C 24.774 13.035,24.931 13.167,25.064 13.167 C 25.197 13.167,25.334 13.253,25.370 13.359 C 25.652 14.207,28.375 13.447,28.592 12.458 C 28.648 12.206,28.762 12.000,28.847 12.000 C 28.931 12.000,29.000 11.400,29.000 10.667 L 29.000 9.333 33.500 9.333 L 38.000 9.333 38.000 10.865 L 38.000 12.397 38.700 13.050 C 40.430 14.663,42.500 13.450,42.500 10.821 L 42.500 9.333 43.833 9.333 C 44.567 9.333,45.167 9.399,45.167 9.478 C 45.167 9.558,45.520 9.663,45.953 9.712 C 46.385 9.761,46.767 9.883,46.800 9.984 C 46.834 10.084,46.936 10.167,47.027 10.167 C 47.250 10.167,48.167 11.095,48.167 11.321 C 48.167 11.419,48.236 11.500,48.320 11.500 C 48.404 11.500,48.523 11.725,48.583 12.000 C 48.644 12.275,48.762 12.500,48.847 12.500 C 48.937 12.500,49.000 15.193,49.000 19.106 C 49.000 26.098,49.073 26.897,49.734 27.103 C 49.926 27.163,50.136 27.294,50.201 27.395 C 50.508 27.876,52.224 27.603,52.875 26.969 L 53.500 26.361 53.500 18.847 C 53.500 14.276,53.439 11.333,53.344 11.333 C 53.257 11.333,53.136 10.996,53.075 10.583 C 53.013 10.171,52.911 9.833,52.848 9.833 C 52.785 9.833,52.639 9.571,52.523 9.250 C 52.407 8.929,52.242 8.667,52.156 8.667 C 52.070 8.667,52.000 8.584,52.000 8.482 C 52.000 8.264,50.242 6.500,50.024 6.500 C 49.942 6.500,49.781 6.388,49.667 6.251 C 49.554 6.114,49.169 5.914,48.814 5.808 C 48.458 5.701,48.167 5.553,48.167 5.479 C 48.167 5.405,47.792 5.295,47.333 5.234 C 46.875 5.173,46.500 5.058,46.500 4.979 C 46.500 4.899,45.600 4.833,44.500 4.833 L 42.500 4.833 42.500 3.400 C 42.500 1.350,41.953 0.766,40.122 0.858 C 38.357 0.947,38.102 1.243,38.026 3.291 L 37.968 4.833 33.484 4.833 L 29.000 4.833 29.000 3.583 C 29.000 2.861,28.930 2.333,28.833 2.333 C 28.742 2.333,28.667 2.227,28.667 2.096 C 28.667 1.422,27.679 0.833,26.546 0.833 C 24.884 0.833,24.301 1.481,24.198 3.440 L 24.125 4.833 19.746 4.833 L 15.368 4.833 15.308 3.389 C 15.269 2.428,15.179 1.921,15.041 1.875 C 14.927 1.837,14.833 1.699,14.833 1.569 C 14.833 1.440,14.729 1.333,14.601 1.333 C 14.473 1.333,14.326 1.221,14.273 1.083 C 14.094 0.616,12.020 0.753,11.429 1.272 M263.375 13.107 C 263.169 13.153,263.000 13.260,263.000 13.345 C 263.000 13.430,262.904 13.500,262.787 13.500 C 262.520 13.500,262.137 13.942,261.777 14.663 C 261.460 15.297,261.339 44.333,261.653 44.333 C 261.738 44.333,261.856 44.558,261.917 44.833 C 261.977 45.108,262.084 45.333,262.154 45.333 C 262.225 45.333,262.455 45.483,262.667 45.667 C 262.878 45.850,263.265 46.000,263.526 46.000 C 263.786 46.000,264.000 46.075,264.000 46.167 C 264.000 46.258,264.300 46.333,264.667 46.333 C 265.033 46.333,265.333 46.267,265.333 46.185 C 265.333 46.104,265.596 45.988,265.917 45.928 C 266.237 45.867,266.500 45.755,266.500 45.679 C 266.500 45.602,266.651 45.499,266.836 45.451 C 267.668 45.233,267.667 45.256,267.667 29.600 C 267.667 20.821,267.604 14.856,267.509 14.606 C 267.305 14.072,266.815 13.500,266.560 13.500 C 266.451 13.500,266.335 13.421,266.302 13.323 C 266.239 13.135,264.001 12.969,263.375 13.107 M234.000 13.333 C 234.000 13.425,233.810 13.500,233.578 13.500 C 233.346 13.500,233.113 13.612,233.060 13.750 C 233.008 13.887,232.865 14.000,232.743 14.000 C 232.622 14.000,232.470 14.169,232.405 14.375 C 232.341 14.581,232.205 14.804,232.103 14.869 C 231.817 15.051,231.840 44.530,232.125 44.625 C 232.240 44.663,232.333 44.787,232.333 44.900 C 232.333 45.245,233.165 45.854,233.770 45.952 C 234.084 46.003,234.382 46.110,234.431 46.189 C 234.546 46.377,235.454 46.377,235.569 46.189 C 235.618 46.110,235.926 46.001,236.253 45.948 C 236.633 45.887,237.072 45.628,237.466 45.235 L 238.083 44.617 238.133 39.059 L 238.183 33.500 243.175 33.500 C 245.920 33.500,248.167 33.436,248.167 33.357 C 248.167 33.279,248.707 33.164,249.368 33.103 C 250.029 33.041,250.610 32.925,250.660 32.844 C 250.710 32.763,251.032 32.645,251.375 32.580 C 251.719 32.516,252.000 32.402,252.000 32.328 C 252.000 32.254,252.230 32.143,252.511 32.081 C 252.792 32.019,253.063 31.863,253.112 31.734 C 253.162 31.605,253.308 31.500,253.436 31.500 C 253.565 31.500,253.798 31.350,253.955 31.167 C 254.112 30.983,254.299 30.833,254.370 30.833 C 254.557 30.833,255.090 30.273,255.216 29.946 C 255.275 29.792,255.394 29.667,255.482 29.667 C 255.569 29.667,255.727 29.404,255.833 29.083 C 255.939 28.762,256.089 28.500,256.166 28.500 C 256.244 28.500,256.356 28.275,256.417 28.000 C 256.477 27.725,256.593 27.500,256.674 27.500 C 256.755 27.500,256.872 27.123,256.933 26.663 C 256.994 26.203,257.109 25.786,257.189 25.736 C 257.378 25.619,257.378 20.833,257.188 20.833 C 257.108 20.833,256.993 20.458,256.932 20.000 C 256.872 19.542,256.758 19.167,256.679 19.167 C 256.601 19.167,256.488 18.904,256.428 18.583 C 256.367 18.262,256.256 18.000,256.179 18.000 C 256.103 18.000,255.949 17.780,255.838 17.512 C 255.727 17.244,255.531 16.983,255.401 16.934 C 255.272 16.884,255.167 16.767,255.167 16.674 C 255.167 16.436,254.629 15.833,254.417 15.833 C 254.320 15.833,254.112 15.683,253.955 15.500 C 253.798 15.317,253.565 15.167,253.436 15.167 C 253.308 15.167,253.159 15.054,253.106 14.917 C 253.054 14.779,252.896 14.667,252.755 14.667 C 252.615 14.667,252.500 14.599,252.500 14.517 C 252.500 14.434,252.106 14.273,251.625 14.159 C 251.144 14.045,250.708 13.888,250.657 13.810 C 250.606 13.732,249.987 13.619,249.282 13.559 C 248.577 13.500,248.000 13.387,248.000 13.309 C 248.000 13.231,244.850 13.167,241.000 13.167 C 236.444 13.167,234.000 13.225,234.000 13.333 M246.500 18.310 C 246.500 18.389,246.924 18.497,247.443 18.551 C 247.961 18.604,248.430 18.713,248.484 18.792 C 248.539 18.871,248.827 19.034,249.125 19.155 C 249.423 19.275,249.667 19.440,249.667 19.520 C 249.667 19.601,249.779 19.667,249.917 19.667 C 250.054 19.667,250.167 19.782,250.167 19.922 C 250.167 20.062,250.274 20.218,250.405 20.268 C 250.536 20.319,250.737 20.729,250.853 21.180 C 250.968 21.631,251.124 22.000,251.198 22.000 C 251.273 22.000,251.333 22.600,251.333 23.333 C 251.333 24.111,251.264 24.667,251.167 24.667 C 251.075 24.667,251.000 24.851,251.000 25.075 C 251.000 25.556,250.674 26.333,250.473 26.333 C 250.396 26.333,250.333 26.429,250.333 26.546 C 250.333 26.802,249.926 27.159,249.248 27.500 C 248.974 27.637,248.707 27.808,248.654 27.879 C 248.601 27.950,248.170 28.055,247.696 28.111 C 247.221 28.167,246.833 28.278,246.833 28.357 C 246.833 28.435,244.883 28.500,242.500 28.500 L 238.167 28.500 238.167 23.333 L 238.167 18.167 242.333 18.167 C 244.625 18.167,246.500 18.231,246.500 18.310 M280.792 22.612 C 280.173 22.651,279.667 22.745,279.667 22.822 C 279.667 22.898,279.179 23.013,278.583 23.077 C 277.987 23.141,277.500 23.254,277.500 23.328 C 277.500 23.402,277.252 23.509,276.949 23.566 C 276.646 23.623,276.105 23.819,275.747 24.001 C 275.389 24.184,275.000 24.333,274.881 24.333 C 274.763 24.333,274.667 24.408,274.667 24.500 C 274.667 24.592,274.580 24.667,274.475 24.667 C 273.275 24.667,272.528 27.861,273.500 28.833 C 273.943 29.277,276.527 29.465,276.802 29.074 C 276.963 28.844,277.786 28.500,278.175 28.500 C 278.354 28.500,278.500 28.432,278.500 28.348 C 278.500 28.264,278.819 28.143,279.208 28.079 C 279.598 28.015,280.006 27.890,280.116 27.802 C 280.619 27.396,284.551 27.386,284.811 27.791 C 284.869 27.881,285.073 28.004,285.265 28.064 C 285.457 28.123,285.719 28.377,285.848 28.628 C 285.977 28.878,286.152 29.133,286.237 29.195 C 286.322 29.256,286.425 29.941,286.466 30.718 L 286.540 32.130 284.562 32.214 C 281.665 32.337,278.104 32.666,278.004 32.820 C 277.956 32.894,277.560 33.006,277.125 33.070 C 276.690 33.135,276.333 33.257,276.333 33.344 C 276.333 33.430,276.201 33.500,276.040 33.500 C 275.398 33.500,273.500 34.711,273.500 35.120 C 273.500 35.238,273.442 35.333,273.371 35.333 C 273.147 35.333,272.678 36.384,272.480 37.331 C 272.104 39.131,272.672 42.667,273.337 42.667 C 273.427 42.667,273.500 42.771,273.500 42.899 C 273.500 43.204,275.126 44.833,275.430 44.833 C 275.560 44.833,275.667 44.903,275.667 44.987 C 275.667 45.072,275.948 45.233,276.292 45.345 C 276.635 45.457,276.961 45.617,277.016 45.700 C 277.070 45.784,277.539 45.896,278.057 45.949 C 278.576 46.003,279.000 46.111,279.000 46.190 C 279.000 46.269,279.675 46.333,280.500 46.333 C 281.325 46.333,282.000 46.268,282.000 46.188 C 282.000 46.109,282.347 46.004,282.771 45.956 C 283.194 45.909,283.588 45.797,283.646 45.709 C 283.703 45.621,284.013 45.463,284.335 45.358 C 284.909 45.171,285.428 44.760,286.079 43.979 C 286.367 43.633,286.415 43.620,286.466 43.875 C 286.498 44.035,286.585 44.167,286.658 44.167 C 286.732 44.167,286.837 44.373,286.893 44.625 C 287.243 46.207,292.000 46.612,292.000 45.060 C 292.000 44.951,292.094 44.830,292.208 44.792 C 292.492 44.697,292.515 28.884,292.231 28.702 C 292.130 28.637,291.994 28.227,291.930 27.792 C 291.865 27.356,291.743 27.000,291.656 27.000 C 291.570 27.000,291.500 26.891,291.500 26.758 C 291.500 26.625,291.406 26.457,291.291 26.383 C 291.177 26.310,290.976 26.042,290.845 25.788 C 290.482 25.084,289.810 24.413,289.208 24.153 C 288.910 24.024,288.667 23.868,288.667 23.806 C 288.667 23.744,288.442 23.644,288.167 23.583 C 287.892 23.523,287.667 23.409,287.667 23.330 C 287.667 23.252,287.310 23.135,286.875 23.070 C 286.440 23.006,286.043 22.892,285.994 22.817 C 285.888 22.653,282.373 22.515,280.792 22.612 M309.375 22.614 C 308.894 22.652,308.500 22.747,308.500 22.823 C 308.500 22.900,308.162 23.013,307.750 23.075 C 307.337 23.136,307.000 23.241,307.000 23.307 C 307.000 23.373,306.794 23.519,306.542 23.632 C 305.736 23.992,305.372 24.253,304.678 24.968 L 304.000 25.667 304.000 25.167 C 304.000 24.892,303.925 24.667,303.833 24.667 C 303.742 24.667,303.667 24.528,303.667 24.358 C 303.667 24.008,303.137 23.392,302.464 22.958 C 301.980 22.646,299.667 22.528,299.667 22.815 C 299.667 22.897,299.477 23.011,299.246 23.070 C 299.014 23.128,298.658 23.342,298.454 23.546 L 298.083 23.917 298.083 34.470 C 298.083 43.677,298.115 45.041,298.333 45.164 C 298.471 45.241,298.764 45.461,298.984 45.652 C 299.204 45.843,299.598 46.000,299.859 46.000 C 300.120 46.000,300.333 46.075,300.333 46.167 C 300.333 46.258,300.596 46.333,300.917 46.333 C 301.237 46.333,301.500 46.268,301.500 46.189 C 301.500 46.109,301.792 46.005,302.148 45.957 C 302.814 45.868,303.418 45.402,303.792 44.692 C 303.946 44.398,304.000 42.862,304.000 38.743 C 304.000 33.118,304.164 30.812,304.596 30.381 C 304.726 30.250,304.833 30.070,304.833 29.981 C 304.833 29.726,306.028 28.500,306.277 28.500 C 306.400 28.500,306.500 28.426,306.500 28.337 C 306.500 28.247,306.706 28.123,306.958 28.061 C 307.210 27.999,307.469 27.869,307.532 27.772 C 307.687 27.535,310.649 27.537,310.801 27.775 C 310.865 27.874,311.093 28.010,311.308 28.077 C 311.872 28.253,312.265 28.701,312.502 29.439 C 312.617 29.793,312.771 30.161,312.845 30.255 C 312.919 30.349,313.003 33.606,313.032 37.491 C 313.072 42.957,313.130 44.571,313.292 44.625 C 313.406 44.663,313.500 44.773,313.500 44.870 C 313.500 45.227,314.412 45.876,315.030 45.959 C 315.380 46.005,315.667 46.109,315.667 46.189 C 315.667 46.268,315.929 46.333,316.250 46.333 C 316.571 46.333,316.833 46.268,316.833 46.188 C 316.833 46.109,317.104 46.000,317.434 45.946 C 317.820 45.884,318.241 45.636,318.611 45.256 L 319.187 44.663 319.135 36.408 C 319.098 30.530,319.029 28.120,318.896 28.035 C 318.793 27.970,318.655 27.672,318.591 27.373 C 318.456 26.752,318.031 25.846,317.735 25.546 C 317.624 25.434,317.369 25.078,317.169 24.754 C 316.970 24.431,316.711 24.167,316.595 24.167 C 316.479 24.167,316.211 24.017,316.000 23.833 C 315.789 23.650,315.521 23.500,315.405 23.500 C 315.289 23.500,315.169 23.423,315.138 23.329 C 315.106 23.236,314.781 23.111,314.415 23.054 C 314.049 22.996,313.712 22.892,313.667 22.824 C 313.562 22.667,310.545 22.520,309.375 22.614 M336.125 22.613 C 335.690 22.652,335.333 22.746,335.333 22.821 C 335.333 22.896,335.033 23.005,334.667 23.064 C 334.300 23.123,334.000 23.245,334.000 23.335 C 334.000 23.426,333.816 23.500,333.592 23.500 C 333.367 23.500,333.123 23.594,333.050 23.709 C 332.977 23.823,332.692 24.030,332.417 24.167 C 331.844 24.453,330.927 25.297,330.787 25.667 C 330.735 25.804,330.687 25.633,330.680 25.286 C 330.662 24.418,330.115 23.598,329.128 22.958 C 328.628 22.634,326.333 22.531,326.333 22.833 C 326.333 22.925,326.244 23.000,326.135 23.000 C 326.025 23.000,325.648 23.309,325.296 23.686 L 324.657 24.372 324.703 34.613 L 324.750 44.855 325.393 45.428 C 325.811 45.799,326.206 46.000,326.518 46.000 C 326.783 46.000,327.000 46.075,327.000 46.167 C 327.000 46.258,327.262 46.333,327.583 46.333 C 327.904 46.333,328.167 46.268,328.167 46.189 C 328.167 46.109,328.457 46.005,328.811 45.957 C 329.258 45.897,329.653 45.679,330.103 45.243 L 330.750 44.614 330.833 37.801 C 330.890 33.130,330.974 30.950,331.099 30.869 C 331.200 30.803,331.332 30.544,331.394 30.292 C 331.456 30.040,331.580 29.833,331.670 29.833 C 331.760 29.833,331.833 29.752,331.833 29.652 C 331.833 29.395,332.707 28.500,332.958 28.500 C 333.073 28.500,333.167 28.433,333.167 28.351 C 333.167 28.270,333.372 28.151,333.623 28.088 C 333.874 28.025,334.130 27.892,334.192 27.793 C 334.358 27.524,337.535 27.523,337.625 27.792 C 337.663 27.906,337.787 28.000,337.901 28.000 C 338.267 28.000,339.138 28.909,339.260 29.420 C 339.326 29.693,339.463 30.022,339.565 30.150 C 339.692 30.311,339.767 32.567,339.803 37.359 C 339.835 41.517,339.919 44.333,340.011 44.333 C 340.097 44.333,340.167 44.493,340.167 44.689 C 340.167 45.204,340.957 45.859,341.697 45.959 C 342.047 46.005,342.333 46.109,342.333 46.189 C 342.333 46.268,342.596 46.333,342.917 46.333 C 343.238 46.333,343.500 46.268,343.500 46.188 C 343.500 46.109,343.763 46.001,344.083 45.949 C 344.430 45.893,344.920 45.615,345.292 45.265 L 345.917 44.675 345.969 38.213 C 346.020 32.029,345.856 28.186,345.524 27.772 C 345.440 27.668,345.317 27.325,345.249 27.009 C 345.181 26.694,345.041 26.340,344.938 26.224 C 344.452 25.676,344.333 25.501,344.333 25.335 C 344.333 25.061,343.212 24.000,342.922 24.000 C 342.782 24.000,342.667 23.926,342.667 23.837 C 342.667 23.747,342.479 23.626,342.250 23.568 C 342.021 23.511,341.833 23.403,341.833 23.329 C 341.833 23.254,341.590 23.141,341.292 23.077 C 340.994 23.014,340.675 22.901,340.583 22.828 C 340.379 22.665,337.220 22.513,336.125 22.613 M359.375 22.612 C 358.894 22.652,358.500 22.746,358.500 22.821 C 358.500 22.896,358.125 23.007,357.667 23.068 C 357.208 23.128,356.833 23.245,356.833 23.326 C 356.833 23.407,356.608 23.523,356.333 23.583 C 356.058 23.644,355.833 23.754,355.833 23.829 C 355.833 23.903,355.628 24.015,355.376 24.079 C 354.875 24.204,354.828 24.241,353.500 25.565 C 352.244 26.816,352.025 27.092,351.903 27.579 C 351.845 27.811,351.738 28.000,351.667 28.000 C 351.595 28.000,351.487 28.197,351.427 28.437 C 351.366 28.677,351.217 28.973,351.095 29.095 C 350.973 29.217,350.820 29.677,350.754 30.117 C 350.688 30.557,350.548 30.970,350.442 31.036 C 350.175 31.201,350.171 37.796,350.438 37.964 C 350.541 38.030,350.682 38.421,350.750 38.833 C 350.870 39.558,351.453 40.859,351.708 40.972 C 351.777 41.003,351.833 41.119,351.833 41.230 C 351.833 41.510,352.277 42.078,353.200 42.983 C 354.536 44.291,354.995 44.659,355.421 44.766 C 355.648 44.823,355.833 44.929,355.833 45.001 C 355.833 45.074,356.208 45.223,356.667 45.333 C 357.125 45.443,357.500 45.596,357.500 45.673 C 357.500 45.750,358.027 45.865,358.670 45.928 C 359.314 45.992,359.881 46.109,359.930 46.189 C 360.047 46.378,363.786 46.378,363.903 46.189 C 363.952 46.109,364.519 45.992,365.163 45.928 C 365.807 45.865,366.333 45.755,366.333 45.683 C 366.333 45.612,366.746 45.461,367.250 45.348 C 367.754 45.235,368.167 45.079,368.167 45.001 C 368.167 44.923,368.392 44.810,368.667 44.750 C 368.942 44.690,369.167 44.579,369.167 44.505 C 369.167 44.430,369.351 44.323,369.576 44.267 C 370.217 44.106,370.840 43.424,370.946 42.765 C 371.000 42.436,371.109 42.167,371.188 42.167 C 371.379 42.167,371.376 41.213,371.186 41.095 C 371.104 41.045,370.987 40.732,370.925 40.400 C 370.850 40.002,370.701 39.768,370.489 39.712 C 370.312 39.666,370.167 39.562,370.167 39.481 C 370.167 39.227,368.642 39.320,367.973 39.615 C 367.621 39.771,367.333 39.952,367.333 40.019 C 367.333 40.086,367.090 40.191,366.792 40.253 C 366.494 40.315,366.100 40.460,365.917 40.575 C 365.733 40.689,365.284 40.839,364.917 40.907 C 364.551 40.975,364.198 41.115,364.135 41.219 C 363.966 41.491,360.298 41.476,360.207 41.203 C 360.169 41.091,359.985 41.000,359.797 41.000 C 358.994 41.000,357.641 39.867,357.100 38.741 C 356.927 38.379,356.716 37.946,356.633 37.779 C 356.549 37.612,356.438 37.105,356.384 36.654 L 356.287 35.833 363.310 35.833 C 367.881 35.833,370.333 35.775,370.333 35.667 C 370.333 35.575,370.453 35.500,370.599 35.500 C 370.745 35.500,370.904 35.350,370.952 35.167 C 371.000 34.983,371.105 34.833,371.186 34.833 C 371.267 34.833,371.333 33.933,371.333 32.833 C 371.333 31.611,371.269 30.833,371.167 30.833 C 371.075 30.833,371.000 30.642,371.000 30.407 C 371.000 29.782,370.651 28.500,370.480 28.500 C 370.399 28.500,370.333 28.324,370.333 28.109 C 370.333 27.894,370.183 27.545,370.000 27.333 C 369.817 27.122,369.667 26.885,369.667 26.808 C 369.667 26.730,369.535 26.522,369.375 26.345 C 369.215 26.168,368.821 25.718,368.501 25.345 C 368.181 24.972,367.825 24.667,367.710 24.667 C 367.594 24.667,367.500 24.588,367.500 24.491 C 367.500 24.395,367.275 24.238,367.000 24.142 C 366.725 24.046,366.500 23.903,366.500 23.825 C 366.500 23.746,366.238 23.633,365.917 23.572 C 365.596 23.512,365.333 23.400,365.333 23.322 C 365.333 23.245,365.052 23.131,364.708 23.069 C 364.365 23.007,364.005 22.895,363.909 22.819 C 363.698 22.653,360.597 22.511,359.375 22.612 M377.333 22.833 C 377.333 22.925,377.232 23.000,377.108 23.000 C 376.736 23.000,375.985 23.803,375.821 24.378 C 375.734 24.680,375.671 29.104,375.676 34.499 C 375.686 44.648,375.718 45.090,376.458 45.415 C 376.665 45.505,376.833 45.635,376.833 45.704 C 376.833 45.773,377.133 45.877,377.500 45.936 C 377.867 45.995,378.167 46.108,378.167 46.188 C 378.167 46.268,378.429 46.333,378.750 46.333 C 379.071 46.333,379.333 46.258,379.333 46.167 C 379.333 46.075,379.547 46.000,379.808 46.000 C 380.069 46.000,380.455 45.850,380.667 45.667 C 380.878 45.483,381.109 45.333,381.179 45.333 C 381.249 45.333,381.356 45.108,381.417 44.833 C 381.477 44.558,381.591 44.333,381.669 44.333 C 381.748 44.333,381.835 41.481,381.864 37.994 C 381.900 33.671,381.974 31.616,382.098 31.535 C 382.197 31.470,382.362 31.173,382.464 30.876 C 382.657 30.311,383.657 29.167,383.957 29.167 C 384.053 29.167,384.171 29.064,384.219 28.938 C 384.267 28.812,384.650 28.657,385.070 28.594 C 385.490 28.531,385.833 28.417,385.833 28.341 C 385.833 28.265,386.583 28.149,387.500 28.083 C 388.417 28.018,389.167 27.907,389.167 27.836 C 389.167 27.766,389.393 27.663,389.670 27.608 C 391.204 27.301,391.629 23.715,390.205 23.085 C 390.001 22.995,389.833 22.864,389.833 22.794 C 389.833 22.613,386.706 22.636,386.593 22.818 C 386.542 22.901,386.125 23.020,385.666 23.083 C 385.208 23.146,384.833 23.266,384.833 23.349 C 384.833 23.432,384.726 23.500,384.595 23.500 C 384.464 23.500,384.255 23.603,384.129 23.728 C 384.004 23.853,383.733 24.009,383.529 24.074 C 383.076 24.218,382.333 24.883,382.333 25.144 C 382.333 25.248,382.263 25.333,382.178 25.333 C 382.092 25.333,381.975 25.483,381.917 25.667 C 381.724 26.274,381.500 26.012,381.500 25.179 C 381.500 24.706,381.403 24.260,381.272 24.129 C 381.147 24.004,380.993 23.741,380.931 23.545 C 380.863 23.331,380.623 23.147,380.326 23.082 C 380.055 23.022,379.833 22.904,379.833 22.820 C 379.833 22.736,379.271 22.667,378.583 22.667 C 377.861 22.667,377.333 22.737,377.333 22.833 M363.134 27.320 C 363.167 27.419,363.289 27.500,363.405 27.500 C 363.865 27.500,365.333 28.979,365.333 29.442 C 365.333 29.566,365.401 29.667,365.483 29.667 C 365.611 29.667,366.000 31.400,366.000 31.972 C 366.000 32.116,364.738 32.167,361.151 32.167 L 356.302 32.167 356.421 31.292 C 356.487 30.810,356.600 30.378,356.674 30.332 C 356.747 30.285,356.858 30.041,356.922 29.790 C 356.985 29.539,357.103 29.333,357.185 29.333 C 357.266 29.333,357.333 29.239,357.333 29.124 C 357.333 28.913,358.211 28.000,358.414 28.000 C 358.474 28.000,358.636 27.887,358.774 27.750 C 358.911 27.613,359.168 27.500,359.345 27.500 C 359.522 27.500,359.667 27.430,359.667 27.345 C 359.667 26.981,363.014 26.957,363.134 27.320 M38.000 29.116 C 37.221 29.254,36.546 29.425,36.500 29.496 C 36.454 29.567,36.173 29.678,35.875 29.742 C 35.577 29.807,35.333 29.921,35.333 29.995 C 35.333 30.070,35.141 30.179,34.907 30.238 C 34.672 30.296,34.111 30.605,33.659 30.922 C 33.207 31.240,32.803 31.500,32.763 31.500 C 32.436 31.500,30.167 34.114,30.167 34.490 C 30.167 34.567,30.054 34.674,29.917 34.727 C 29.779 34.780,29.667 34.938,29.667 35.078 C 29.667 35.218,29.601 35.333,29.522 35.333 C 29.442 35.333,29.282 35.671,29.167 36.083 C 29.051 36.496,28.900 36.833,28.830 36.833 C 28.761 36.833,28.651 37.114,28.587 37.458 C 28.522 37.801,28.383 38.136,28.276 38.202 C 28.006 38.369,28.006 44.688,28.277 45.016 C 28.383 45.145,28.523 45.531,28.587 45.875 C 28.651 46.219,28.761 46.500,28.830 46.500 C 28.900 46.500,29.051 46.837,29.167 47.250 C 29.282 47.663,29.442 48.000,29.522 48.000 C 29.601 48.000,29.667 48.110,29.667 48.244 C 29.667 48.379,29.892 48.719,30.167 49.000 C 30.442 49.281,30.667 49.582,30.667 49.667 C 30.667 49.898,32.533 51.712,33.052 51.986 C 33.299 52.117,33.500 52.277,33.500 52.343 C 33.500 52.410,33.688 52.511,33.917 52.568 C 34.146 52.626,34.333 52.741,34.333 52.823 C 34.333 52.906,34.558 53.023,34.833 53.083 C 35.108 53.144,35.333 53.250,35.333 53.320 C 35.333 53.472,36.481 53.833,36.964 53.833 C 37.152 53.833,37.337 53.927,37.375 54.042 C 37.468 54.319,44.118 54.344,44.298 54.068 C 44.363 53.968,44.662 53.838,44.961 53.780 C 45.849 53.607,47.785 52.622,48.050 52.208 C 48.123 52.094,48.266 52.000,48.367 52.000 C 48.578 52.000,50.995 49.654,50.998 49.446 C 50.999 49.371,51.094 49.205,51.208 49.077 C 51.679 48.552,51.798 48.374,51.908 48.029 C 51.971 47.830,52.085 47.667,52.161 47.667 C 52.238 47.667,52.390 47.292,52.500 46.833 C 52.610 46.375,52.762 46.000,52.838 46.000 C 52.914 46.000,53.028 45.587,53.091 45.083 C 53.154 44.579,53.271 44.167,53.353 44.167 C 53.434 44.167,53.500 43.042,53.500 41.667 C 53.500 40.292,53.434 39.167,53.353 39.167 C 53.271 39.167,53.154 38.754,53.091 38.250 C 53.028 37.746,52.907 37.333,52.823 37.333 C 52.739 37.333,52.623 37.034,52.564 36.668 C 52.506 36.302,52.317 35.840,52.146 35.642 C 51.974 35.444,51.833 35.181,51.833 35.058 C 51.833 34.934,51.758 34.833,51.667 34.833 C 51.575 34.833,51.500 34.738,51.500 34.620 C 51.500 34.503,51.369 34.286,51.208 34.137 C 51.048 33.988,50.735 33.615,50.512 33.308 C 50.289 33.001,49.747 32.450,49.306 32.083 C 48.866 31.717,48.381 31.308,48.230 31.174 C 47.936 30.915,46.508 30.181,46.280 30.172 C 46.204 30.169,46.030 30.054,45.893 29.917 C 45.755 29.779,45.467 29.667,45.252 29.667 C 45.037 29.667,44.836 29.597,44.806 29.512 C 44.607 28.957,40.305 28.707,38.000 29.116 M42.496 33.678 C 43.090 33.774,43.616 33.917,43.665 33.997 C 43.713 34.076,43.959 34.192,44.210 34.255 C 44.461 34.318,44.667 34.436,44.667 34.518 C 44.667 34.600,44.775 34.667,44.908 34.667 C 45.041 34.667,45.210 34.768,45.283 34.892 C 45.357 35.016,45.601 35.215,45.826 35.333 C 46.051 35.451,46.367 35.706,46.528 35.899 C 47.386 36.925,47.667 37.316,47.667 37.482 C 47.667 37.584,47.736 37.667,47.820 37.667 C 47.904 37.667,48.023 37.892,48.083 38.167 C 48.144 38.442,48.260 38.667,48.341 38.667 C 48.422 38.667,48.538 39.042,48.599 39.500 C 48.660 39.958,48.775 40.333,48.855 40.333 C 48.935 40.333,49.000 40.933,49.000 41.667 C 49.000 42.400,48.934 43.000,48.852 43.000 C 48.771 43.000,48.651 43.356,48.586 43.792 C 48.521 44.227,48.418 44.621,48.359 44.667 C 48.299 44.712,48.025 45.196,47.750 45.740 C 47.475 46.285,47.028 46.923,46.757 47.157 C 46.485 47.392,46.150 47.715,46.011 47.875 C 45.873 48.035,45.663 48.167,45.546 48.167 C 45.429 48.167,45.333 48.236,45.333 48.321 C 45.333 48.501,43.639 49.333,43.274 49.333 C 43.139 49.333,42.997 49.427,42.958 49.542 C 42.908 49.694,42.313 49.750,40.750 49.750 C 39.187 49.750,38.593 49.694,38.542 49.542 C 38.504 49.427,38.332 49.333,38.162 49.333 C 37.870 49.333,36.626 48.749,35.942 48.290 C 35.380 47.913,34.420 46.912,34.180 46.453 C 34.050 46.204,33.889 46.000,33.823 46.000 C 33.757 46.000,33.656 45.813,33.598 45.583 C 33.541 45.354,33.426 45.167,33.343 45.167 C 33.261 45.167,33.141 44.923,33.077 44.625 C 33.014 44.327,32.876 43.978,32.772 43.849 C 32.515 43.531,32.514 39.532,32.771 39.369 C 32.874 39.304,33.011 39.006,33.076 38.708 C 33.140 38.410,33.254 38.167,33.329 38.167 C 33.403 38.167,33.515 37.964,33.577 37.716 C 33.639 37.468,33.835 37.164,34.012 37.040 C 34.189 36.916,34.333 36.740,34.333 36.649 C 34.333 36.422,35.349 35.414,35.708 35.283 C 35.869 35.225,36.000 35.108,36.000 35.023 C 36.000 34.939,36.188 34.822,36.417 34.765 C 36.646 34.707,36.833 34.587,36.833 34.497 C 36.833 34.407,36.940 34.333,37.071 34.333 C 37.202 34.333,37.417 34.226,37.549 34.094 C 38.037 33.606,40.682 33.383,42.496 33.678 M39.667 35.289 C 38.688 35.662,38.587 36.033,38.532 39.437 C 38.488 42.147,38.519 42.662,38.740 42.883 C 38.883 43.026,39.000 43.211,39.000 43.295 C 39.000 43.677,39.964 43.833,42.331 43.833 L 44.813 43.833 45.365 43.329 C 46.362 42.418,45.997 39.685,44.875 39.670 C 44.760 39.668,44.667 39.592,44.667 39.500 C 44.667 39.408,44.292 39.333,43.833 39.333 L 43.000 39.333 43.000 37.833 C 43.000 37.008,42.930 36.333,42.845 36.333 C 42.759 36.333,42.644 36.191,42.588 36.016 C 42.388 35.383,40.590 34.936,39.667 35.289 M286.465 37.182 C 286.422 37.924,286.310 38.580,286.216 38.640 C 286.122 38.701,285.988 38.938,285.918 39.167 C 285.810 39.525,285.058 40.334,284.082 41.142 C 283.933 41.267,283.515 41.408,283.155 41.456 C 282.795 41.504,282.500 41.609,282.500 41.689 C 282.500 41.768,282.162 41.833,281.750 41.833 C 281.337 41.833,281.000 41.758,281.000 41.667 C 281.000 41.575,280.818 41.500,280.595 41.500 C 280.373 41.500,280.078 41.387,279.940 41.250 C 279.803 41.112,279.624 41.000,279.543 41.000 C 279.092 41.000,278.587 39.881,278.529 38.750 C 278.461 37.446,278.951 36.638,279.956 36.397 C 280.209 36.337,280.493 36.228,280.585 36.156 C 280.827 35.968,281.773 35.893,284.313 35.861 L 286.543 35.833 286.465 37.182 " stroke="none" fill="#040404" fill-rule="evenodd"></path><path id="path2" d="" stroke="none" fill="#3834100" fill-rule="evenodd"></path><path id="path3" d="" stroke="none" fill="#383444" fill-rule="evenodd"></path><path id="path4" d="" stroke="none" fill="#3c3404" fill-rule="evenodd"></path><path id="path5" d="" stroke="none" fill="#043804" fill-rule="evenodd"></path><path id="path6" d="" stroke="none" fill="#080404" fill-rule="evenodd"></path><path id="path7" d="" stroke="none" fill="#080404" fill-rule="evenodd"></path><path id="path8" d="" stroke="none" fill="#080404" fill-rule="evenodd"></path></g></svg>